<svg width="105" height="554" viewBox="0 0 105 554" fill="none" xmlns="http://www.w3.org/2000/svg">
<path d="M68.7732 529.38H103V553.699H2.12092L2.12092 513.445C2.12092 505.731 3.55282 498.918 6.4166 493.006C9.23419 487.047 13.2758 482.451 18.5415 479.218C23.761 475.938 29.6964 474.299 36.3478 474.299C46.1862 474.299 54.0616 477.832 59.974 484.899C65.8401 491.92 68.7732 501.574 68.7732 513.861V529.38ZM49.9969 529.38V513.445C49.9969 508.733 48.8191 505.154 46.4634 502.706C44.1077 500.211 40.782 498.964 36.4863 498.964C31.7749 498.964 28.0104 500.234 25.1929 502.775C22.3753 505.315 20.9434 508.78 20.8972 513.168V529.38H49.9969ZM84.1545 410.631V443.957L103 449.777V475.759L2.12092 438.761L2.12092 415.897L103 378.622V404.742L84.1545 410.631ZM65.3782 438.137V416.451L30.3892 427.329L65.3782 438.137ZM84.293 341.213V298.88H103L103 365.532H2.12092L2.12092 341.213H84.293ZM84.1545 224.266V257.592L103 263.412V289.393L2.12092 252.395L2.12092 229.531L103 192.256V218.376L84.1545 224.266ZM65.3782 251.772V230.085L30.3892 240.963L65.3782 251.772ZM76.1867 127.133C72.63 127.133 69.8586 128.404 67.8725 130.944C65.8863 133.438 63.8308 137.849 61.7061 144.178C59.5813 150.506 57.5259 155.679 55.5397 159.697C49.1193 172.769 40.297 179.305 29.0728 179.305C23.4838 179.305 18.5646 177.688 14.3151 174.455C10.0194 171.176 6.69374 166.557 4.33805 160.598C1.93616 154.64 0.735222 147.942 0.735222 140.505C0.735222 133.254 2.02854 126.764 4.61519 121.036C7.20183 115.263 10.897 110.782 15.7008 107.595C20.4584 104.408 25.9088 102.814 32.0521 102.814V127.064C27.9412 127.064 24.754 128.334 22.4907 130.875C20.2274 133.369 19.0958 136.764 19.0958 141.06C19.0958 145.402 20.0658 148.843 22.0057 151.383C23.8995 153.877 26.3245 155.125 29.2807 155.125C31.8673 155.125 34.223 153.739 36.3478 150.967C38.4263 148.196 40.5972 143.323 42.8606 136.348C45.0777 129.374 47.4796 123.646 50.0662 119.166C56.348 108.265 65.0087 102.814 76.0481 102.814C84.8704 102.814 91.7989 106.14 96.8336 112.791C101.868 119.443 104.386 128.565 104.386 140.159C104.386 148.335 102.931 155.748 100.021 162.399C97.0646 169.005 93.046 173.993 87.9651 177.365C82.838 180.691 76.9488 182.354 70.2974 182.354V157.965C75.7017 157.965 79.6971 156.58 82.2838 153.808C84.8242 150.991 86.0944 146.441 86.0944 140.159C86.0944 136.14 85.2399 132.976 83.5309 130.667C81.7757 128.311 79.3276 127.133 76.1867 127.133ZM103 0.347243V24.5277H60.8747V60.3481H103V84.6672H2.12092L2.12092 60.3481H42.1677V24.5277H2.12092L2.12092 0.347243H103Z" fill="#F7F5F5"/>
</svg>
