<svg
    width="163"
    height="161"
    viewBox="0 0 163 161"
    fill="none"
    xmlns="http://www.w3.org/2000/svg"
  >
    <rect
      x="6.10352e-05"
      y="0.479492"
      width="162.746"
      height="160.429"
      rx="5.2125"
      fill="#6000FF"
    />
    <path
      d="M46.7495 138.86C21.369 139.276 7.13616 145.927 1.58988 150.23C0.514125 151.064 0.00012207 152.387 0.00012207 153.749V155.697C0.00012207 158.575 2.33383 160.909 5.21262 160.909H157.394C160.273 160.909 162.607 158.575 162.607 155.697L162.608 5.11328C162.608 57.8175 150.121 79.6748 121.084 83.4464C92.047 87.218 83.6263 113.329 80.4322 117.971C77.2382 122.613 67.9464 138.28 46.7495 138.86Z"
      fill="#5A01EE"
    />
    <path
      d="M63.8469 160.908C62.4734 161.005 61.2517 160.994 60.2336 160.908H63.8469C71.7195 160.354 84.5795 156.275 92.6669 142.665C104.54 122.683 109.173 109.652 141.317 105.308C153.132 103.223 160.333 94.0146 162.456 89.6709V155.696C162.456 158.575 160.123 160.908 157.244 160.908H63.8469Z"
      fill="#5400DE"
    />
  </svg>